<svg width="84" height="86" viewBox="0 0 84 86" fill="none" xmlns="http://www.w3.org/2000/svg">
<g clip-path="url(#clip0_336_519)">
<path d="M80.7487 30.1321C78.9263 26.6275 76.2046 23.6984 72.8766 21.6601C69.5487 19.6219 65.7407 18.5518 61.8627 18.5651H2.04422C1.63902 18.5685 1.2438 18.6942 0.907961 18.9263C0.57212 19.1585 0.310553 19.4868 0.155947 19.8703C0.00134035 20.2538 -0.0394476 20.6754 0.0386801 21.0825C0.116808 21.4896 0.310386 21.8641 0.595223 22.1591L13.6292 35.5823C14.1991 36.1685 14.8765 36.6336 15.6225 36.9509C16.3685 37.2682 17.1684 37.4315 17.9762 37.4313H60.1477C61.5902 37.4166 62.9794 37.9891 64.0096 39.023C65.0398 40.0569 65.6266 41.4674 65.641 42.9443C65.6554 44.4211 65.0961 45.8434 64.0863 46.8981C63.0765 47.9528 61.6987 48.5536 60.2562 48.5683H31.1852C30.7797 48.5711 30.384 48.6963 30.0477 48.9281C29.7113 49.16 29.4492 49.4883 29.2942 49.8719C29.1391 50.2555 29.098 50.6775 29.176 51.0849C29.2541 51.4923 29.4477 51.8671 29.7327 52.1624L42.7702 65.5891C43.3399 66.1756 44.0173 66.6409 44.7633 66.9583C45.5094 67.2756 46.3094 67.4387 47.1172 67.4381H60.2667C77.3712 67.4381 90.3107 48.7152 80.7487 30.1249" fill="#1E4648"/>
</g>
<defs>
<clipPath id="clip0_336_519">
<rect width="84" height="86" fill="white"/>
</clipPath>
</defs>
</svg>
