<svg width="79" height="79" viewBox="0 0 79 79" fill="none" xmlns="http://www.w3.org/2000/svg">
<path d="M39.5 0C28.7692 0 27.4295 0.049375 23.2161 0.237C19.0094 0.4345 16.1456 1.09613 13.6275 2.07375C11.0304 3.081 8.82496 4.43388 6.62942 6.62942C4.43388 8.82496 3.07771 11.0271 2.07375 13.6275C1.09613 16.1456 0.431208 19.0094 0.237 23.2161C0.0395 27.4295 0 28.7692 0 39.5C0 50.2308 0.049375 51.5705 0.237 55.7839C0.4345 59.9873 1.09613 62.8544 2.07375 65.3725C3.081 67.9663 4.43388 70.175 6.62942 72.3706C8.82496 74.5628 11.0271 75.9223 13.6275 76.9263C16.1489 77.9006 19.0127 78.5688 23.2161 78.763C27.4295 78.9605 28.7692 79 39.5 79C50.2308 79 51.5705 78.9506 55.7839 78.763C59.9873 78.5655 62.8544 77.9006 65.3725 76.9263C67.9663 75.919 70.175 74.5628 72.3706 72.3706C74.5628 70.175 75.9223 67.9762 76.9263 65.3725C77.9006 62.8544 78.5688 59.9873 78.763 55.7839C78.9605 51.5705 79 50.2308 79 39.5C79 28.7692 78.9506 27.4295 78.763 23.2161C78.5655 19.0127 77.9006 16.1423 76.9263 13.6275C75.919 11.0304 74.5628 8.82496 72.3706 6.62942C70.175 4.43388 67.9762 3.07771 65.3725 2.07375C62.8544 1.09613 59.9873 0.431208 55.7839 0.237C51.5705 0.0395 50.2308 0 39.5 0ZM39.5 7.11C50.0432 7.11 51.3006 7.16267 55.4646 7.34371C59.3158 7.52475 61.406 8.16333 62.7951 8.70975C64.645 9.42404 65.9551 10.2799 67.3442 11.6591C68.7234 13.0416 69.5792 14.355 70.2935 16.2049C70.8334 17.594 71.4785 19.6842 71.653 23.5354C71.8406 27.7027 71.8834 28.9535 71.8834 39.5C71.8834 50.0465 71.834 51.3006 71.6398 55.4646C71.439 59.3158 70.7972 61.406 70.254 62.7951C69.5167 64.645 68.6773 65.9551 67.2948 67.3442C65.9156 68.7234 64.5825 69.5792 62.7523 70.2935C61.3698 70.8334 59.2467 71.4785 55.3955 71.653C51.2019 71.8406 49.9675 71.8834 39.4013 71.8834C28.8317 71.8834 27.5973 71.834 23.407 71.6398C19.5525 71.439 17.4294 70.7972 16.0469 70.254C14.1739 69.5167 12.8869 68.6773 11.5077 67.2948C10.1219 65.9156 9.23642 64.5825 8.54517 62.7523C8.00204 61.3698 7.36346 59.2467 7.16267 55.3955C7.01454 51.248 6.96187 49.9675 6.96187 39.4506C6.96187 28.9305 7.01454 27.6467 7.16267 23.4498C7.36346 19.5986 8.00204 17.4788 8.54517 16.0963C9.23642 14.22 10.1219 12.9363 11.5077 11.5505C12.8869 10.1713 14.1739 9.2825 16.0469 8.59454C17.4294 8.04813 19.5064 7.40625 23.3577 7.20875C27.5545 7.06063 28.7889 7.01125 39.3519 7.01125L39.5 7.11ZM39.5 19.2167C28.2919 19.2167 19.2167 28.3018 19.2167 39.5C19.2167 50.7081 28.3018 59.7833 39.5 59.7833C50.7081 59.7833 59.7833 50.6982 59.7833 39.5C59.7833 28.2919 50.6982 19.2167 39.5 19.2167ZM39.5 52.6667C32.2254 52.6667 26.3333 46.7746 26.3333 39.5C26.3333 32.2254 32.2254 26.3333 39.5 26.3333C46.7746 26.3333 52.6667 32.2254 52.6667 39.5C52.6667 46.7746 46.7746 52.6667 39.5 52.6667ZM65.3264 18.4169C65.3264 21.0338 63.2 23.1569 60.5864 23.1569C57.9695 23.1569 55.8464 21.0305 55.8464 18.4169C55.8464 15.8033 57.9728 13.6802 60.5864 13.6802C63.1967 13.6769 65.3264 15.8033 65.3264 18.4169Z" fill="#1E4648"/>
</svg>
