<svg width="79" height="79" viewBox="0 0 79 79" fill="none" xmlns="http://www.w3.org/2000/svg">
<path d="M39.5557 0C17.7616 0 0.0952148 17.6664 0.0952148 39.4572C0.0952148 56.1756 10.4903 70.4548 25.1711 76.1988C24.8255 73.075 24.5161 68.2889 25.3061 64.8787C26.027 61.7945 29.9342 45.2703 29.9342 45.2703C29.9342 45.2703 28.7525 42.9003 28.7525 39.4078C28.7525 33.9338 31.9355 29.8258 35.8888 29.8258C39.2595 29.8258 40.8855 32.3571 40.8855 35.3821C40.8855 38.7692 38.7361 43.8318 37.6202 48.5225C36.6821 52.4494 39.5952 55.6489 43.4629 55.6489C50.4676 55.6489 55.8659 48.2591 55.8659 37.5875C55.8659 28.1701 49.0752 21.5604 39.3813 21.5604C28.1567 21.5604 21.5766 29.9937 21.5766 38.6738C21.5766 42.0741 22.8735 45.7278 24.5029 47.6963C24.8288 48.0913 24.8716 48.4369 24.7827 48.8319C24.4865 50.0662 23.8183 52.7786 23.6833 53.3184C23.5088 54.059 23.1171 54.2105 22.3633 53.8615C17.4423 51.5903 14.3547 44.3881 14.3547 38.5685C14.3547 26.1391 23.4002 14.6973 40.4247 14.6973C54.1115 14.6973 64.7567 24.4637 64.7567 37.4855C64.7567 51.0965 56.1753 62.0479 44.2398 62.0479C40.2437 62.0479 36.4912 59.9775 35.1613 57.5087L32.6959 66.8834C31.8104 70.3232 29.391 74.6254 27.765 77.239C31.4615 78.3746 35.3555 79 39.4504 79C61.1984 79 78.901 61.3402 78.901 39.5428C78.901 17.7421 61.1984 0.0855833 39.4504 0.0855833L39.5557 0Z" fill="#1E4648"/>
</svg>
