<svg width="183" height="118" viewBox="0 0 183 118" fill="none" xmlns="http://www.w3.org/2000/svg">
<g clip-path="url(#clip0_336_531)">
<path d="M161.732 105.617C148.977 104.151 136.838 99.3306 126.554 91.6462C124.253 89.8657 121.414 88.9198 118.504 88.9639C106.509 88.8371 94.5283 88.091 82.6103 86.7286C81.3919 86.6185 80.1665 86.8436 79.0668 87.3794C77.967 87.9152 77.0348 88.7414 76.3709 89.7686C75.5662 90.9922 74.6038 92.1045 73.5084 93.0768C69.9737 96.1943 65.3836 97.8488 60.6718 97.7038L38.6214 97.3685C36.9053 97.3196 35.2016 97.6743 33.6478 98.4043C32.094 99.1342 30.7335 100.219 29.676 101.571C21.0885 112.993 -0.223841 120.146 -0.000206597 117.218C0.223428 113.932 16.4369 86.7063 24.1747 85.5216C31.1053 84.1385 37.9285 82.2635 44.5925 79.911C30.2799 67.5947 46.471 60.0842 46.471 60.0842C42.8929 49.1314 47.7681 43.2749 50.6977 40.9279C50.8817 40.7769 51.1013 40.6757 51.3357 40.6342C51.5701 40.5926 51.8113 40.612 52.0359 40.6906C52.2606 40.7692 52.4613 40.9044 52.6186 41.083C52.7759 41.2615 52.8845 41.4775 52.9341 41.7103C53.1708 42.8507 53.4694 43.9775 53.8286 45.0855C54.6923 47.6394 56.385 49.8315 58.6378 51.3137C60.8906 52.796 63.5743 53.4833 66.2627 53.2666C75.0739 52.596 90.3034 51.7243 107.97 51.8584C135.902 52.1043 130.982 37.0832 130.982 37.0832C114.076 16.2058 120.405 -0.134033 120.405 -0.134033C138.027 3.24123 138.497 32.1657 138.497 32.1657L149.522 7.7635e-05C158.467 4.78356 155.851 15.7587 152.563 23.9622C149.276 32.1656 146.234 35.6974 157.259 45.5549C168.285 55.4125 166.898 63.4371 153.279 66.6559C143.327 69.0476 142.254 78.2346 142.41 82.9957C142.361 83.8076 142.501 84.6199 142.819 85.3685C143.137 86.1172 143.625 86.7817 144.244 87.3098C151.736 92.1156 161.128 89.9474 168.486 94.4179C175.419 98.5979 182.239 98.5755 182.62 101.392C183.089 104.901 186.131 108.433 161.732 105.617Z" fill="#1E4648"/>
</g>
<defs>
<clipPath id="clip0_336_531">
<rect width="183" height="118" fill="white"/>
</clipPath>
</defs>
</svg>
